{
  "accessors": [
    {
      "bufferView": 2,
      "componentType": 5126,
      "count": 4168,
      "max": [
        9.1670999526977539,
        5.625999927520752,
        15.925900459289551
      ],
      "min": [
        -8.2112998962402344,
        -10.947199821472168,
        -0.2939000129699707
      ],
      "type": "VEC3"
    },
    {
      "bufferView": 2,
      "byteOffset": 50016,
      "componentType": 5126,
      "count": 4168,
      "max": [
        0.99999666213989258,
        0.99998462200164795,
        1
      ],
      "min": [
        -0.99999666213989258,
        -0.99989914894104004,
        -1
      ],
      "type": "VEC3"
    },
    {
      "bufferView": 3,
      "componentType": 5126,
      "count": 4168,
      "max": [
        0.99999821186065674,
        0.99993240833282471,
        1,
        1
      ],
      "min": [
        -0.99999678134918213,
        -0.99998533725738525,
        -1,
        -1
      ],
      "type": "VEC4"
    },
    {
      "bufferView": 1,
      "componentType": 5126,
      "count": 4168,
      "max": [
        0.99580001831054688,
        0.99639999866485596
      ],
      "min": [
        0.0060000000521540642,
        0.0043000001460313797
      ],
      "type": "VEC2"
    },
    {
      "bufferView": 0,
      "componentType": 5125,
      "count": 9390,
      "max": [
        4167
      ],
      "min": [
        0
      ],
      "type": "SCALAR"
    },
    {
      "bufferView": 2,
      "byteOffset": 100032,
      "componentType": 5126,
      "count": 3060,
      "max": [
        9.1670999526977539,
        6.0173001289367676,
        15.925900459289551
      ],
      "min": [
        -8.2112998962402344,
        -10.947199821472168,
        -0.2939000129699707
      ],
      "type": "VEC3"
    },
    {
      "bufferView": 2,
      "byteOffset": 136752,
      "componentType": 5126,
      "count": 3060,
      "max": [
        0.99991071224212646,
        0.99997496604919434,
        0.99983257055282593
      ],
      "min": [
        -0.99998319149017334,
        -0.99990558624267578,
        -1
      ],
      "type": "VEC3"
    },
    {
      "bufferView": 3,
      "byteOffset": 66688,
      "componentType": 5126,
      "count": 3060,
      "max": [
        0.99999672174453735,
        0.9997563362121582,
        1,
        1
      ],
      "min": [
        -0.99999672174453735,
        -0.99950158596038818,
        -1,
        -1
      ],
      "type": "VEC4"
    },
    {
      "bufferView": 1,
      "byteOffset": 33344,
      "componentType": 5126,
      "count": 3060,
      "max": [
        0.99599999189376831,
        0.99330002069473267
      ],
      "min": [
        0.0035000001080334187,
        0.0054000001400709152
      ],
      "type": "VEC2"
    },
    {
      "bufferView": 0,
      "byteOffset": 37560,
      "componentType": 5125,
      "count": 6822,
      "max": [
        3059
      ],
      "min": [
        0
      ],
      "type": "SCALAR"
    },
    {
      "bufferView": 2,
      "byteOffset": 173472,
      "componentType": 5126,
      "count": 3940,
      "max": [
        9.1670999526977539,
        6.0173001289367676,
        15.925900459289551
      ],
      "min": [
        -8.2112998962402344,
        -10.947199821472168,
        -0.2939000129699707
      ],
      "type": "VEC3"
    },
    {
      "bufferView": 2,
      "byteOffset": 220752,
      "componentType": 5126,
      "count": 3940,
      "max": [
        0.99999666213989258,
        0.99993264675140381,
        1
      ],
      "min": [
        -0.99999666213989258,
        -0.99973756074905396,
        -1
      ],
      "type": "VEC3"
    },
    {
      "bufferView": 3,
      "byteOffset": 115648,
      "componentType": 5126,
      "count": 3940,
      "max": [
        0.9999997615814209,
        0.99998331069946289,
        0.99965357780456543,
        1
      ],
      "min": [
        -0.9999995231628418,
        -0.99966573715209961,
        -0.99913543462753296,
        -1
      ],
      "type": "VEC4"
    },
    {
      "bufferView": 1,
      "byteOffset": 57824,
      "componentType": 5126,
      "count": 3940,
      "max": [
        0.99620002508163452,
        0.99629998207092285
      ],
      "min": [
        0.0035000001080334187,
        0.00419999985024333
      ],
      "type": "VEC2"
    },
    {
      "bufferView": 0,
      "byteOffset": 64848,
      "componentType": 5125,
      "count": 10338,
      "max": [
        3939
      ],
      "min": [
        0
      ],
      "type": "SCALAR"
    }
  ],
  "asset": {
    "extras": {
      "author": "Artem Shupa-Dubrova (https://sketchfab.com/fxtema)",
      "license": "CC-BY-ND-4.0 (http://creativecommons.org/licenses/by-nd/4.0/)",
      "source": "https://sketchfab.com/models/uaeYu2fwakD1e1bWp5Cxu3XAqrt",
      "title": "Robo_OBJ_pose4"
    },
    "generator": "Sketchfab-4.12.0",
    "version": "2.0"
  },
  "bufferViews": [
    {
      "buffer": 0,
      "byteLength": 106200,
      "byteOffset": 0,
      "name": "floatBufferViews",
      "target": 34963
    },
    {
      "buffer": 0,
      "byteLength": 89344,
      "byteOffset": 106200,
      "byteStride": 8,
      "name": "floatBufferViews",
      "target": 34962
    },
    {
      "buffer": 0,
      "byteLength": 268032,
      "byteOffset": 195544,
      "byteStride": 12,
      "name": "floatBufferViews",
      "target": 34962
    },
    {
      "buffer": 0,
      "byteLength": 178688,
      "byteOffset": 463576,
      "byteStride": 16,
      "name": "floatBufferViews",
      "target": 34962
    }
  ],
  "buffers": [
    {
      "byteLength": 642264,
      "uri": "scene.bin"
    }
  ],
  "images": [
    {
      "uri": "textures/material_0_baseColor.jpeg"
    },
    {
      "uri": "textures/material_0_normal.jpeg"
    },
    {
      "uri": "textures/material_0_emissive.jpeg"
    },
    {
      "uri": "textures/material_0_metallicRoughness.png"
    }
  ],
  "materials": [
    {
      "doubleSided": true,
      "emissiveFactor": [
        1,
        1,
        1
      ],
      "emissiveTexture": {
        "index": 2,
        "texCoord": 0
      },
      "name": "material_0",
      "normalTexture": {
        "index": 1,
        "scale": 1,
        "texCoord": 0
      },
      "pbrMetallicRoughness": {
        "baseColorFactor": [
          1,
          1,
          1,
          1
        ],
        "baseColorTexture": {
          "index": 0,
          "texCoord": 0
        },
        "metallicFactor": 1,
        "metallicRoughnessTexture": {
          "index": 3,
          "texCoord": 0
        },
        "roughnessFactor": 1
      }
    }
  ],
  "meshes": [
    {
      "primitives": [
        {
          "attributes": {
            "NORMAL": 1,
            "POSITION": 0,
            "TANGENT": 2,
            "TEXCOORD_0": 3
          },
          "indices": 4,
          "material": 0,
          "mode": 4
        }
      ]
    },
    {
      "primitives": [
        {
          "attributes": {
            "NORMAL": 6,
            "POSITION": 5,
            "TANGENT": 7,
            "TEXCOORD_0": 8
          },
          "indices": 9,
          "material": 0,
          "mode": 4
        }
      ]
    },
    {
      "primitives": [
        {
          "attributes": {
            "NORMAL": 11,
            "POSITION": 10,
            "TANGENT": 12,
            "TEXCOORD_0": 13
          },
          "indices": 14,
          "material": 0,
          "mode": 4
        }
      ]
    }
  ],
  "nodes": [
    {
      "children": [
        1
      ],
      "name": "RootNode (gltf orientation matrix)",
      "rotation": [
        -0.70710678118654746,
        -0,
        -0,
        0.70710678118654757
      ]
    },
    {
      "children": [
        2
      ],
      "name": "RootNode (model correction matrix)"
    },
    {
      "children": [
        3,
        4,
        5
      ],
      "name": "d2f0cff60afc40f5afe79156ec7db657.obj.cleaner.materialmerger.gles"
    },
    {
      "mesh": 0,
      "name": ""
    },
    {
      "mesh": 1,
      "name": ""
    },
    {
      "mesh": 2,
      "name": ""
    }
  ],
  "samplers": [
    {
      "magFilter": 9729,
      "minFilter": 9987,
      "wrapS": 10497,
      "wrapT": 10497
    }
  ],
  "scene": 0,
  "scenes": [
    {
      "name": "OSG_Scene",
      "nodes": [
        0
      ]
    }
  ],
  "textures": [
    {
      "sampler": 0,
      "source": 0
    },
    {
      "sampler": 0,
      "source": 1
    },
    {
      "sampler": 0,
      "source": 2
    },
    {
      "sampler": 0,
      "source": 3
    }
  ]
}

